► Title - 
	It was not possible to access the webcam feed.
▬ Message - 
	Exception from HRESULT: 0x80040217
○ Type - 
	System.Runtime.InteropServices.COMException
♦ [Version] Date/Hour - 
	[2.28.2] 12/29/2021 14:02:25
▲ Source - 
	mscorlib
▼ TargetSite - 
	Void ThrowExceptionForHRInternal(Int32, IntPtr)
♠ StackTrace - 
   at System.Runtime.InteropServices.Marshal.ThrowExceptionForHRInternal(Int32 errorCode, IntPtr errorInfo)
   at ScreenToGif.Webcam.DirectX.CaptureWebcam.RenderGraph()
   at ScreenToGif.Webcam.DirectX.CaptureWebcam.StartPreview()
   at ScreenToGif.Controls.WebcamControl.Refresh()

----------------------------------

► Title - 
	Removing event handlers
▬ Message - 
	Object reference not set to an instance of an object.
○ Type - 
	System.NullReferenceException
♦ [Version] Date/Hour - 
	[2.28.2] 12/29/2021 14:50:50
▲ Source - 
	ScreenToGif
▼ TargetSite - 
	Void RemoveRoutedEventHandlers(System.Windows.UIElement, System.Windows.RoutedEvent)
♠ StackTrace - 
   at ScreenToGif.Util.Other.RemoveRoutedEventHandlers(UIElement element, RoutedEvent routedEvent)

----------------------------------

► Title - 
	Removing event handlers
▬ Message - 
	Object reference not set to an instance of an object.
○ Type - 
	System.NullReferenceException
♦ [Version] Date/Hour - 
	[2.28.2] 12/29/2021 14:56:42
▲ Source - 
	ScreenToGif
▼ TargetSite - 
	Void RemoveRoutedEventHandlers(System.Windows.UIElement, System.Windows.RoutedEvent)
♠ StackTrace - 
   at ScreenToGif.Util.Other.RemoveRoutedEventHandlers(UIElement element, RoutedEvent routedEvent)

----------------------------------

► Title - 
	Encode
▬ Message - 
	Error while encoding the Gif with FFmpeg.
○ Type - 
	System.Exception
♦ [Version] Date/Hour - 
	[2.28.2] 12/29/2021 14:56:52
▲ Source - 
	ScreenToGif
▼ TargetSite - 
	Void EncodeWithFfmpeg(ScreenToGif.Model.ExportPresets.ExportPreset, System.Collections.Generic.List`1[ScreenToGif.Model.FrameInfo], Int32, System.Threading.CancellationTokenSource, System.String)
◘ Other - 
	Command:
-vsync passthrough -safe 0 -f concat -i "file:B:\Temp\Temp\ScreenToGif\Recording\2021-12-29 14-55-00\Encode 2021-12-29 02-56-30-69\concat.txt" -loop 0 -lavfi palettegen=stats_mode=diff[pal],[0:v][pal]paletteuse=dither=sierra2:diff_mode=rectangle -f gif -y "B:\Res\Art\Gif\Alternatives.gif"

Result:

ffmpeg version 4.4-full_build-www.gyan.dev Copyright (c) 2000-2021 the FFmpeg developers
  built with gcc 10.2.0 (Rev6, Built by MSYS2 project)
  configuration: --enable-gpl --enable-version3 --enable-static --disable-w32threads --disable-autodetect --enable-fontconfig --enable-iconv --enable-gnutls --enable-libxml2 --enable-gmp --enable-lzma --enable-libsnappy --enable-zlib --enable-librist --enable-libsrt --enable-libssh --enable-libzmq --enable-avisynth --enable-libbluray --enable-libcaca --enable-sdl2 --enable-libdav1d --enable-libzvbi --enable-librav1e --enable-libsvtav1 --enable-libwebp --enable-libx264 --enable-libx265 --enable-libxvid --enable-libaom --enable-libopenjpeg --enable-libvpx --enable-libass --enable-frei0r --enable-libfreetype --enable-libfribidi --enable-libvidstab --enable-libvmaf --enable-libzimg --enable-amf --enable-cuda-llvm --enable-cuvid --enable-ffnvcodec --enable-nvdec --enable-nvenc --enable-d3d11va --enable-dxva2 --enable-libmfx --enable-libglslang --enable-vulkan --enable-opencl --enable-libcdio --enable-libgme --enable-libmodplug --enable-libopenmpt --enable-libopencore-amrwb --enable-libmp3lame --enable-libshine --enable-libtheora --enable-libtwolame --enable-libvo-amrwbenc --enable-libilbc --enable-libgsm --enable-libopencore-amrnb --enable-libopus --enable-libspeex --enable-libvorbis --enable-ladspa --enable-libbs2b --enable-libflite --enable-libmysofa --enable-librubberband --enable-libsoxr --enable-chromaprint
  libavutil      56. 70.100 / 56. 70.100
  libavcodec     58.134.100 / 58.134.100
  libavformat    58. 76.100 / 58. 76.100
  libavdevice    58. 13.100 / 58. 13.100
  libavfilter     7.110.100 /  7.110.100
  libswscale      5.  9.100 /  5.  9.100
  libswresample   3.  9.100 /  3.  9.100
  libpostproc    55.  9.100 / 55.  9.100
Input #0, concat, from 'file:B:\Temp\Temp\ScreenToGif\Recording\2021-12-29 14-55-00\Encode 2021-12-29 02-56-30-69\concat.txt':
  Duration: 00:00:12.13, start: 0.000000, bitrate: 11 kb/s
  Stream #0:0: Video: png, rgba(pc), 1411x815 [SAR 5669:5669 DAR 1411:815], 25 fps, 25 tbr, 25 tbn, 25 tbc
Stream mapping:
  Stream #0:0 (png) -> palettegen
  Stream #0:0 (png) -> paletteuse:default
  paletteuse -> Stream #0:0 (gif)
Press [q] to stop, [?] for help
[Parsed_palettegen_0 @ 0000024e1b71ca00] 255(+1) colors generated out of 1329705 colors; ratio=0.000192
Output #0, gif, to 'B:\Res\Art\Gif\Alternatives.gif':
  Metadata:
    encoder         : Lavf58.76.100
  Stream #0:0: Video: gif, pal8(pc, progressive), 1411x815 [SAR 1:1 DAR 1411:815], q=2-31, 200 kb/s, 25 fps, 100 tbn (default)
    Metadata:
      encoder         : Lavc58.134.100 gif
frame=    2 fps=0.2 q=-0.0 size=     512kB time=00:00:00.09 bitrate=46603.4kbits/s speed=0.00953x    
frame=   10 fps=1.0 q=-0.0 size=    4352kB time=00:00:00.69 bitrate=51669.0kbits/s speed=0.0693x    
frame=   17 fps=1.6 q=-0.0 size=    8704kB time=00:00:01.25 bitrate=57042.5kbits/s speed=0.119x    
frame=   24 fps=2.2 q=-0.0 size=   12544kB time=00:00:01.81 bitrate=56773.7kbits/s speed=0.163x    
frame=   31 fps=2.7 q=-0.0 size=   16384kB time=00:00:02.37 bitrate=56632.0kbits/s speed=0.204x    
frame=   38 fps=3.1 q=-0.0 size=   20224kB time=00:00:02.93 bitrate=56544.4kbits/s speed=0.241x    
frame=   49 fps=3.9 q=-0.0 size=   22784kB time=00:00:03.77 bitrate=49508.4kbits/s speed=0.298x    
frame=   56 fps=4.2 q=-0.0 size=   26624kB time=00:00:04.29 bitrate=50840.0kbits/s speed=0.325x    
frame=   63 fps=4.6 q=-0.0 size=   30208kB time=00:00:04.85 bitrate=51023.5kbits/s speed=0.354x    
frame=   69 fps=4.8 q=-0.0 size=   33024kB time=00:00:05.29 bitrate=51140.4kbits/s speed=0.371x    
frame=   78 fps=5.3 q=-0.0 size=   36352kB time=00:00:06.01 bitrate=49550.0kbits/s speed=0.406x    
frame=   84 fps=5.5 q=-0.0 size=   39680kB time=00:00:06.45 bitrate=50396.7kbits/s speed=0.421x    
frame=   90 fps=5.7 q=-0.0 size=   43520kB time=00:00:06.93 bitrate=51445.3kbits/s speed=0.436x    
frame=   96 fps=5.9 q=-0.0 size=   47104kB time=00:00:07.41 bitrate=52075.0kbits/s speed=0.452x    
frame=  103 fps=6.1 q=-0.0 size=   50688kB time=00:00:07.93 bitrate=52362.7kbits/s speed=0.469x    
frame=  111 fps=6.4 q=-0.0 size=   54016kB time=00:00:08.57 bitrate=51633.5kbits/s speed=0.49x    
frame=  117 fps=6.5 q=-0.0 size=   58112kB time=00:00:09.01 bitrate=52836.1kbits/s speed=0.501x    
frame=  126 fps=6.8 q=-0.0 size=   61952kB time=00:00:09.73 bitrate=52159.4kbits/s speed=0.524x    
frame=  133 fps=6.9 q=-0.0 size=   66048kB time=00:00:10.29 bitrate=52581.7kbits/s speed=0.538x    
frame=  139 fps=7.1 q=-0.0 size=   69888kB time=00:00:10.73 bitrate=53357.2kbits/s speed=0.545x    
frame=  144 fps=7.1 q=-0.0 size=   73984kB time=00:00:11.13 bitrate=54454.4kbits/s speed=0.547x    
frame=  148 fps=7.1 q=-0.0 size=   77312kB time=00:00:11.45 bitrate=55313.5kbits/s speed=0.549x    
frame=  152 fps=7.1 q=-0.0 size=   80896kB time=00:00:11.73 bitrate=56496.2kbits/s speed=0.549x    
frame=  156 fps=7.1 q=-0.0 Lsize=   84021kB time=00:00:12.05 bitrate=57120.6kbits/s speed=0.551x    
video:84021kB audio:0kB subtitle:0kB other streams:0kB global headers:0kB muxing overhead: 0.000023%
♠ StackTrace - 
   at ScreenToGif.Util.EncodingManager.EncodeWithFfmpeg(ExportPreset preset, List`1 listFrames, Int32 id, CancellationTokenSource tokenSource, String processing)
   at ScreenToGif.Util.EncodingManager.<Encode>d__26.MoveNext()

----------------------------------

► Title - 
	It was not possible to access the webcam feed.
▬ Message - 
	Exception from HRESULT: 0x80040217
○ Type - 
	System.Runtime.InteropServices.COMException
♦ [Version] Date/Hour - 
	[2.28.2] 12/29/2021 16:13:03
▲ Source - 
	mscorlib
▼ TargetSite - 
	Void ThrowExceptionForHRInternal(Int32, IntPtr)
♠ StackTrace - 
   at System.Runtime.InteropServices.Marshal.ThrowExceptionForHRInternal(Int32 errorCode, IntPtr errorInfo)
   at ScreenToGif.Webcam.DirectX.CaptureWebcam.RenderGraph()
   at ScreenToGif.Webcam.DirectX.CaptureWebcam.StartPreview()
   at ScreenToGif.Controls.WebcamControl.Refresh()

----------------------------------

